<svg width="39" height="25" viewBox="0 0 39 25" fill="none" xmlns="http://www.w3.org/2000/svg">
<path d="M38.7628 0.970467C37.5171 -1.04984 31.7637 0.44876 24.6192 3.90507C23.1241 3.01669 21.4192 2.54785 19.6823 2.54747C17.9455 2.54708 16.2404 3.01516 14.7448 3.90288C13.2493 4.79059 12.0181 6.06542 11.1798 7.59438C10.3415 9.12333 9.92665 10.8504 9.97864 12.5954C3.17933 17.4212 -1.06375 21.8792 0.232529 23.9856C1.91938 26.7245 12.0807 23.7247 22.5509 17.429C33.021 11.1333 40.4471 3.70552 38.7628 0.970467ZM11.8199 18.0198C10.8921 18.2168 10.2628 18.1711 10.0552 17.832C9.84758 17.4929 10.1032 16.8734 10.7403 16.1026C11.0262 16.781 11.3884 17.4243 11.8199 18.0198ZM29.3255 11.2168C29.2918 10.9142 29.2451 10.6116 29.1828 10.3116C25.1071 13.7523 17.8731 17.8933 13.3134 19.6632C13.5963 19.9089 13.8931 20.1379 14.2023 20.3493C9.52059 22.1635 5.80822 22.5783 4.89343 21.0927C3.97864 19.6071 6.20398 16.8904 10.0954 13.8488C10.1683 14.3077 10.2745 14.7606 10.4133 15.2039C7.90122 17.2999 6.52838 19.0072 6.97215 19.7271C8.45269 22.1309 25.6832 12.6619 30.5401 7.36529C31.7079 6.09754 32.2918 5.16629 31.9869 4.67067C31.5574 3.97419 29.5215 4.34591 26.6356 5.49758C26.3443 5.19474 26.0331 4.91194 25.704 4.65111C29.9224 2.89817 33.1676 2.34256 34.0279 3.73812C34.9181 5.18455 32.9406 8.08655 29.3255 11.2168ZM27.2987 6.26057C28.1201 6.13015 28.6754 6.19536 28.8688 6.50969C29.0621 6.82402 28.8688 7.32877 28.3744 7.97047C28.0759 7.36451 27.7154 6.79146 27.2987 6.26057Z" fill="url(#paint0_linear_3_5368)"/>
<defs>
<linearGradient id="paint0_linear_3_5368" x1="0" y1="12.5328" x2="39.0014" y2="12.5328" gradientUnits="userSpaceOnUse">
<stop stop-color="#00D6EF"/>
<stop offset="1" stop-color="#7BA0D1"/>
</linearGradient>
</defs>
</svg>
