<svg width="406" height="322" viewBox="0 0 406 322" fill="none" xmlns="http://www.w3.org/2000/svg">
<path d="M179.079 161.504C174.921 157.499 169.478 155.104 163.725 154.748C157.972 154.392 152.286 156.098 147.685 159.561C129.591 172.586 125.17 194.294 136.164 186.429C140.944 183.438 146.555 182.053 152.183 182.473C157.811 182.893 163.163 185.097 167.463 188.766L179.079 161.504Z" fill="#F9FBED"/>
<path d="M179.077 161.507C175.745 158.237 171.495 156.064 166.899 155.282C165.182 159.29 162.43 162.765 158.924 165.35C139.781 179.686 133.747 179.149 131.522 187.908C131.97 188.645 134.032 187.896 136.163 186.431C140.943 183.441 146.554 182.055 152.181 182.476C157.809 182.896 163.161 185.1 167.461 188.769L179.077 161.507Z" fill="#B1B3A8"/>
<path d="M212.931 190.393C217.481 193.81 220.693 198.715 222.006 204.253C223.319 209.791 222.65 215.609 220.116 220.694C209.927 241.197 189.334 249.01 195.134 237.573C197.316 232.368 197.794 226.601 196.499 221.1C195.203 215.598 192.2 210.645 187.922 206.951L212.931 190.393Z" fill="#F9FBED"/>
<path d="M212.932 190.394C216.86 193.346 219.841 197.384 221.507 202.008C217.716 203.934 214.495 206.821 212.166 210.383C201.147 231.728 202.618 237.734 194.275 241.125C193.752 240.265 193.937 238.638 195.102 236.415C197.285 231.21 197.763 225.443 196.467 219.942C195.171 214.44 192.169 209.487 187.891 205.793L212.932 190.394Z" fill="#B1B3A8"/>
<path d="M224.578 194.086C208.096 205.745 191.012 216.53 173.398 226.394L148.905 205.443C155.922 186.607 163.913 168.152 172.845 150.151L237.237 62.8496C240.602 58.4468 245.461 56.5012 247.962 58.6823L302.346 105.044C304.847 107.225 303.925 112.331 300.016 116.391L224.578 194.086Z" fill="#FF8500"/>
<path d="M302.345 105.041L298.531 101.807L217.6 182.338C215.15 183.828 164.057 217.935 162.942 216.93L172.874 225.532C190.488 215.667 207.572 204.883 224.054 193.223L299.791 116.02C303.455 112.108 304.623 106.854 302.345 105.041Z" fill="#CE6700"/>
<path d="M181.888 155.083L254.136 68.5566C254.739 67.536 255.459 66.5896 256.282 65.7369L247.492 58.4604C244.766 55.9108 240.355 58.5936 236.767 62.6278L172.844 150.149C163.912 168.15 155.921 186.605 148.903 205.441L154.029 209.728C152.867 208.921 179.96 157.434 181.888 155.083Z" fill="#FFAF45"/>
<path d="M268.896 125.387C266.948 127.766 264.545 129.73 261.826 131.165C259.108 132.6 256.129 133.476 253.065 133.742C250.002 134.008 246.914 133.658 243.984 132.714C241.054 131.77 238.34 130.25 236.002 128.243C233.663 126.236 231.748 123.783 230.367 121.027C228.987 118.272 228.169 115.269 227.962 112.196C227.755 109.122 228.162 106.04 229.161 103.129C230.16 100.219 231.73 97.5386 233.778 95.246C237.802 90.7431 243.431 88.0016 249.459 87.609C255.487 87.2163 261.434 89.2038 266.027 93.1455C270.619 97.0872 273.492 102.67 274.028 108.696C274.564 114.723 272.722 120.715 268.896 125.387Z" fill="#B1B3A8"/>
<path d="M267.734 124.578C264.987 127.761 261.361 130.059 257.31 131.185C253.26 132.312 248.964 132.216 244.962 130.91C240.96 129.605 237.428 127.147 234.809 123.845C232.19 120.542 230.6 116.543 230.238 112.345C229.876 108.148 230.759 103.941 232.775 100.249C234.791 96.5575 237.851 93.5459 241.572 91.5912C245.294 89.6365 249.511 88.8256 253.696 89.26C257.881 89.6944 261.848 91.3548 265.101 94.0333C267.307 95.8499 269.128 98.0892 270.458 100.619C271.788 103.149 272.6 105.919 272.845 108.766C273.091 111.612 272.765 114.477 271.887 117.193C271.009 119.909 269.597 122.42 267.734 124.578Z" fill="#F9FBED"/>
<path d="M266.197 123.159C264.595 125.226 262.592 126.945 260.307 128.214C258.023 129.483 255.504 130.275 252.903 130.543C250.302 130.81 247.672 130.547 245.173 129.77C242.673 128.993 240.356 127.717 238.36 126.02C236.363 124.323 234.73 122.24 233.558 119.896C232.386 117.552 231.7 114.996 231.54 112.382C231.381 109.768 231.752 107.15 232.63 104.685C233.509 102.221 234.877 99.9614 236.653 98.0429C240.042 94.3813 244.714 92.174 249.697 91.8814C254.679 91.5887 259.587 93.2331 263.397 96.4719C267.206 99.7107 269.624 104.294 270.146 109.266C270.667 114.238 269.253 119.215 266.197 123.159Z" fill="#B1B3A8"/>
<path d="M265.577 122.694C264.004 124.546 262.081 126.069 259.918 127.176C257.754 128.282 255.394 128.951 252.97 129.144C248.076 129.532 243.223 127.958 239.479 124.767C235.735 121.576 233.407 117.03 233.007 112.129C232.607 107.227 234.168 102.372 237.346 98.6312C238.908 96.7622 240.826 95.2239 242.99 94.1061C245.154 92.9883 247.519 92.3132 249.948 92.1203C252.377 91.9274 254.821 92.2204 257.138 92.9823C259.455 93.7442 261.598 94.9597 263.444 96.5581C267.155 99.7697 269.459 104.311 269.858 109.201C270.258 114.092 268.72 118.938 265.577 122.694Z" fill="#0096AF"/>
<path d="M269.245 115.749L267.004 118.963C264.264 122.166 260.512 124.333 256.368 125.106C252.225 125.879 247.938 125.212 244.218 123.216C240.498 121.219 237.567 118.012 235.91 114.125C234.253 110.239 233.97 105.906 235.106 101.843C233.89 104.133 233.167 106.655 232.987 109.244C232.806 111.834 233.171 114.435 234.058 116.877C234.945 119.319 236.334 121.549 238.135 123.421C239.937 125.294 242.11 126.768 244.514 127.747C246.918 128.726 249.5 129.189 252.092 129.106C254.684 129.023 257.228 128.396 259.56 127.265C261.891 126.133 263.958 124.524 265.627 122.54C267.295 120.556 268.528 118.242 269.245 115.749Z" fill="#01708B"/>
<path d="M265.124 104.287C263.747 107.818 258.018 108.609 252.91 106.835C247.803 105.061 244.127 100.396 245.504 96.8658C246.881 93.3351 252.487 92.618 257.717 94.3177C262.948 96.0174 266.379 100.831 265.124 104.287Z" fill="#09BACC"/>
<path d="M245.193 104.627C243.968 105.372 242.172 105.455 240.513 104.108C238.854 102.76 238.346 100.545 239.15 99.3828C239.954 98.2207 242.294 98.4805 243.905 100.025C245.516 101.57 246.194 103.513 245.193 104.627Z" fill="#09BACC"/>
<path d="M236.78 156.197C234.436 158.98 231.318 161.001 227.821 162.004C224.324 163.007 220.606 162.946 217.138 161.83C213.671 160.713 210.61 158.591 208.345 155.733C206.08 152.874 204.712 149.409 204.416 145.776C204.119 142.142 204.907 138.506 206.68 135.327C208.452 132.148 211.129 129.57 214.371 127.921C217.613 126.272 221.273 125.625 224.888 126.063C228.502 126.501 231.908 128.004 234.673 130.382C238.352 133.545 240.638 138.033 241.032 142.868C241.427 147.703 239.898 152.494 236.78 156.197Z" fill="#F9FBED"/>
<path d="M235.742 155.317C233.574 157.869 230.698 159.718 227.477 160.631C224.256 161.543 220.834 161.478 217.645 160.444C214.456 159.409 211.643 157.451 209.561 154.818C207.48 152.185 206.224 148.995 205.952 145.652C205.679 142.308 206.403 138.961 208.032 136.035C209.661 133.108 212.122 130.732 215.102 129.209C218.083 127.686 221.45 127.083 224.778 127.477C228.105 127.871 231.244 129.244 233.796 131.422C235.506 132.857 236.915 134.617 237.94 136.6C238.965 138.583 239.587 140.75 239.768 142.974C239.949 145.197 239.686 147.434 238.995 149.553C238.304 151.672 237.198 153.632 235.742 155.317Z" fill="#F9FBED"/>
<path d="M234.428 154.263C232.537 156.659 229.974 158.435 227.067 159.363C224.159 160.291 221.04 160.329 218.106 159.473C215.173 158.616 212.559 156.905 210.598 154.556C208.638 152.207 207.42 149.328 207.1 146.287C206.78 143.246 207.373 140.18 208.802 137.482C210.232 134.784 212.433 132.576 215.125 131.14C217.818 129.704 220.878 129.105 223.916 129.42C226.954 129.735 229.832 130.95 232.181 132.909C235.262 135.478 237.222 139.15 237.642 143.139C238.062 147.129 236.908 151.121 234.428 154.263Z" fill="#B1B3A8"/>
<path d="M234.006 153.848C232.139 155.948 229.696 157.452 226.979 158.172C224.262 158.892 221.392 158.797 218.726 157.898C216.059 156.999 213.713 155.336 211.978 153.115C210.244 150.895 209.199 148.215 208.971 145.408C208.744 142.601 209.345 139.791 210.7 137.328C212.055 134.864 214.103 132.855 216.592 131.549C219.08 130.244 221.898 129.701 224.696 129.986C227.494 130.272 230.149 131.374 232.33 133.156C233.833 134.383 235.073 135.901 235.975 137.62C236.877 139.338 237.423 141.221 237.579 143.154C237.736 145.087 237.5 147.032 236.886 148.869C236.272 150.707 235.292 152.401 234.006 153.848Z" fill="#0096AF"/>
<path d="M236.894 148.387L235.116 150.983C233.894 152.485 232.381 153.722 230.667 154.621C228.952 155.52 227.074 156.062 225.143 156.214C223.212 156.366 221.27 156.126 219.433 155.506C217.596 154.887 215.903 153.902 214.454 152.611C212.282 150.799 210.691 148.388 209.879 145.679C209.067 142.969 209.07 140.082 209.889 137.379C208.258 140.318 207.71 143.739 208.342 147.046C208.973 150.353 210.743 153.336 213.343 155.475C214.791 156.766 216.485 157.751 218.322 158.37C220.159 158.989 222.101 159.23 224.032 159.078C225.962 158.926 227.841 158.384 229.555 157.485C231.269 156.586 232.783 155.349 234.005 153.847C235.306 152.228 236.287 150.375 236.894 148.387Z" fill="#01708B"/>
<path d="M233.557 139.31C232.569 142.099 228.044 142.663 223.875 141.328C219.706 139.993 216.995 136.088 218.059 133.421C219.122 130.755 223.572 130.068 227.741 131.403C231.91 132.738 234.499 136.718 233.557 139.31Z" fill="#09BACC"/>
<path d="M217.931 139.559C217.342 139.968 216.621 140.142 215.91 140.045C215.198 139.948 214.548 139.588 214.088 139.035C213.266 137.684 212.369 136.21 213.077 135.442C213.786 134.675 215.16 134.175 216.846 135.843C218.532 137.511 219.034 138.888 217.931 139.559Z" fill="#09BACC"/>
<path d="M209.227 181.541C206.635 183.318 203.529 184.193 200.387 184.029C197.245 183.865 194.242 182.672 191.838 180.634C189.435 178.596 187.766 175.825 187.086 172.748C186.407 169.671 186.756 166.459 188.079 163.604C190.596 160.902 194.061 159.279 197.75 159.073C201.439 158.867 205.069 160.094 207.883 162.498C210.396 164.963 211.921 168.263 212.169 171.773C212.416 175.282 211.37 178.758 209.227 181.541Z" fill="#F9FBED"/>
<path d="M208.534 180.955C206.91 182.896 204.746 184.309 202.316 185.014C199.886 185.719 197.299 185.684 194.885 184.914C192.471 184.145 190.339 182.674 188.758 180.691C187.177 178.707 186.22 176.299 186.007 173.772C185.795 171.246 186.337 168.715 187.565 166.501C188.792 164.287 190.65 162.49 192.903 161.338C195.155 160.186 197.7 159.731 200.215 160.031C202.729 160.331 205.1 161.372 207.026 163.023C209.553 165.236 211.123 168.345 211.405 171.692C211.686 175.039 210.657 178.361 208.534 180.955Z" fill="#F9FBED"/>
<path d="M207.27 179.702C205.795 181.49 203.819 182.794 201.595 183.447C199.371 184.099 197.002 184.07 194.791 183.364C192.581 182.658 190.63 181.306 189.19 179.483C187.75 177.66 186.887 175.448 186.71 173.133C186.534 170.818 187.054 168.504 188.202 166.49C189.35 164.476 191.074 162.852 193.153 161.829C195.232 160.806 197.57 160.43 199.868 160.748C202.165 161.066 204.317 162.065 206.046 163.616C208.318 165.605 209.719 168.407 209.948 171.416C210.177 174.426 209.215 177.402 207.27 179.702Z" fill="#B1B3A8"/>
<path d="M207.147 179.776C206.207 180.928 205.046 181.881 203.733 182.579C202.42 183.276 200.98 183.704 199.499 183.837C198.017 183.971 196.523 183.807 195.104 183.355C193.685 182.904 192.369 182.174 191.234 181.208C189.601 179.782 188.422 177.908 187.842 175.819C187.263 173.73 187.308 171.518 187.972 169.458C188.637 167.397 189.891 165.579 191.58 164.228C193.269 162.878 195.318 162.055 197.473 161.861C199.628 161.667 201.793 162.111 203.701 163.137C205.61 164.164 207.176 165.729 208.206 167.636C209.236 169.544 209.685 171.712 209.497 173.87C209.309 176.028 208.492 178.081 207.147 179.776Z" fill="#0096AF"/>
<path d="M209.379 175.726L207.99 177.581C206.351 179.505 204.101 180.807 201.616 181.269C199.13 181.731 196.56 181.324 194.334 180.118C192.107 178.912 190.36 176.979 189.382 174.641C188.405 172.304 188.257 169.703 188.964 167.274C187.579 169.684 187.153 172.531 187.772 175.246C188.391 177.961 190.009 180.345 192.303 181.923C194.598 183.501 197.399 184.157 200.15 183.759C202.901 183.362 205.398 181.94 207.144 179.778C208.19 178.618 208.955 177.231 209.379 175.726Z" fill="#01708B"/>
<path d="M206.87 168.836C206.147 170.959 202.705 171.37 199.596 170.399C196.488 169.429 194.375 166.506 195.711 164.011C197.046 161.515 199.876 161.477 202.984 162.448C206.093 163.418 207.668 166.836 206.87 168.836Z" fill="#09BACC"/>
<path d="M195.034 168.97C194.298 169.417 193.441 169.938 192.177 168.688C190.912 167.437 190.906 166.599 190.757 166.353C190.607 166.108 192.35 165.385 193.614 166.635C194.083 166.801 194.48 167.124 194.739 167.55C194.998 167.975 195.102 168.477 195.034 168.97Z" fill="#09BACC"/>
<path d="M304.212 111.146L307.109 49.1298C307.176 48.5173 307.09 47.8974 306.859 47.3255C306.628 46.7536 306.26 46.2474 305.787 45.852C305.314 45.4567 304.75 45.1844 304.147 45.0595C303.544 44.9346 302.92 44.9609 302.33 45.1361L241.582 57.8502L304.212 111.146Z" fill="#B1B3A8"/>
<path d="M307.002 47.8489C306.882 47.3582 306.665 46.8965 306.363 46.4918C306.06 46.0871 305.679 45.7477 305.243 45.4942C304.806 45.2407 304.323 45.0782 303.822 45.0167C303.322 44.9551 302.814 44.9958 302.33 45.1361L241.582 57.8502L253.22 67.6019L307.002 47.8489Z" fill="#F9FBED"/>
<path d="M304.925 77.5522C298.283 80.2902 291.14 81.6126 283.953 81.4352C276.765 81.2579 269.689 79.5847 263.176 76.5221L302.855 111.126L304.925 77.5522Z" fill="#9FA098"/>
<path d="M157.795 182.532C154.219 189.783 151.148 197.274 148.605 204.952L173.098 225.903C180.403 222.207 187.408 217.946 194.049 213.16L157.795 182.532Z" fill="#B1B3A8"/>
<path d="M150.466 200.283C149.692 201.915 149.166 203.653 148.903 205.441L173.396 226.392C175.087 225.698 176.658 224.743 178.052 223.561L150.466 200.283Z" fill="#F9FBED"/>
<path d="M190.895 216.254L194.57 214.019L157.793 182.53L156.076 186.605L190.895 216.254Z" fill="#F9FBED"/>
<path d="M147.595 208.258C137.915 212.485 129.618 219.348 123.648 228.066C117.677 236.785 114.271 247.011 113.816 257.584C117.813 250.461 123.755 244.629 130.947 240.768C127.505 248.079 108.14 252.116 102.052 305.301C111.114 285.746 126.562 269.879 145.855 260.312C144.173 262.784 142.093 264.959 139.7 266.749C139.7 266.749 160.248 263.002 171.517 228.546C168.53 229.663 165.298 229.961 162.154 229.41C159.01 228.859 156.068 227.479 153.63 225.412C151.193 223.344 149.349 220.665 148.288 217.65C147.227 214.634 146.988 211.392 147.595 208.258Z" fill="#FFAF45"/>
<path d="M105.38 295.871C106.58 277.416 114.575 260.079 127.818 247.215C129.866 245.767 131.594 243.914 132.897 241.769L135.467 236.335L130.321 239.465C125.15 242.288 120.553 246.055 116.767 250.571C118.236 242.25 121.61 234.388 126.625 227.6C131.64 220.812 138.159 215.283 145.673 211.446C145.747 214.309 146.427 217.125 147.667 219.709C148.907 222.293 150.679 224.585 152.867 226.435C155.055 228.285 157.609 229.651 160.36 230.442C163.111 231.232 165.997 231.431 168.827 231.024C165.247 242.434 158.333 252.501 148.978 259.927L151.9 255.625L145.789 257.996C128.508 265.807 114.302 279.122 105.38 295.871Z" fill="#FF8500"/>
</svg>
